<svg width="147" height="40" viewBox="0 0 147 40" fill="none" xmlns="http://www.w3.org/2000/svg">
<path d="M146.952 10.47C146.952 4.94712 142.475 0.469971 136.952 0.469971H10.2812C4.75841 0.469971 0.28125 4.94712 0.28125 10.47V29.6917C0.28125 35.2145 4.75841 39.6917 10.2812 39.6917H136.952C142.475 39.6917 146.952 35.2145 146.952 29.6917V10.47Z" fill="#353945"/>
<path d="M41.9134 23.1495H37.347L36.5058 25.4778H35.0638L38.8491 15.0682H40.4263L44.1966 25.4778H42.7546L41.9134 23.1495ZM41.5229 22.038L39.6302 16.7505L37.7376 22.038H41.5229ZM48.9107 24.216L51.4642 17.2462H52.9213L49.6918 25.4778H48.0995L44.87 17.2462H46.3421L48.9107 24.216ZM53.7557 21.332C53.7557 20.4908 53.9259 19.7548 54.2664 19.1239C54.6069 18.483 55.0725 17.9873 55.6633 17.6368C56.2642 17.2863 56.9301 17.111 57.6611 17.111C58.3821 17.111 59.008 17.2663 59.5388 17.5767C60.0695 17.8871 60.4651 18.2777 60.7254 18.7483V17.2462H62.1074V25.4778H60.7254V23.9456C60.4551 24.4263 60.0495 24.8269 59.5087 25.1473C58.978 25.4578 58.3571 25.613 57.6461 25.613C56.9151 25.613 56.2542 25.4327 55.6633 25.0722C55.0725 24.7117 54.6069 24.206 54.2664 23.5551C53.9259 22.9042 53.7557 22.1631 53.7557 21.332ZM60.7254 21.347C60.7254 20.7261 60.6003 20.1854 60.3499 19.7247C60.0996 19.2641 59.7591 18.9136 59.3285 18.6732C58.9079 18.4229 58.4422 18.2977 57.9315 18.2977C57.4208 18.2977 56.9551 18.4179 56.5346 18.6582C56.114 18.8986 55.7785 19.249 55.5281 19.7097C55.2778 20.1703 55.1526 20.7111 55.1526 21.332C55.1526 21.9629 55.2778 22.5136 55.5281 22.9843C55.7785 23.4449 56.114 23.8004 56.5346 24.0508C56.9551 24.2911 57.4208 24.4113 57.9315 24.4113C58.4422 24.4113 58.9079 24.2911 59.3285 24.0508C59.7591 23.8004 60.0996 23.4449 60.3499 22.9843C60.6003 22.5136 60.7254 21.9679 60.7254 21.347ZM65.7843 14.3622V25.4778H64.4173V14.3622H65.7843ZM67.6032 21.332C67.6032 20.4908 67.7734 19.7548 68.1139 19.1239C68.4544 18.483 68.9201 17.9873 69.5109 17.6368C70.1117 17.2863 70.7777 17.111 71.5087 17.111C72.2297 17.111 72.8556 17.2663 73.3863 17.5767C73.9171 17.8871 74.3126 18.2777 74.573 18.7483V17.2462H75.9549V25.4778H74.573V23.9456C74.3026 24.4263 73.897 24.8269 73.3563 25.1473C72.8255 25.4578 72.2047 25.613 71.4937 25.613C70.7626 25.613 70.1017 25.4327 69.5109 25.0722C68.9201 24.7117 68.4544 24.206 68.1139 23.5551C67.7734 22.9042 67.6032 22.1631 67.6032 21.332ZM74.573 21.347C74.573 20.7261 74.4478 20.1854 74.1975 19.7247C73.9471 19.2641 73.6066 18.9136 73.176 18.6732C72.7554 18.4229 72.2898 18.2977 71.7791 18.2977C71.2683 18.2977 70.8027 18.4179 70.3821 18.6582C69.9615 18.8986 69.626 19.249 69.3757 19.7097C69.1253 20.1703 69.0002 20.7111 69.0002 21.332C69.0002 21.9629 69.1253 22.5136 69.3757 22.9843C69.626 23.4449 69.9615 23.8004 70.3821 24.0508C70.8027 24.2911 71.2683 24.4113 71.7791 24.4113C72.2898 24.4113 72.7554 24.2911 73.176 24.0508C73.6066 23.8004 73.9471 23.4449 74.1975 22.9843C74.4478 22.5136 74.573 21.9679 74.573 21.347ZM82.2755 17.096C83.2769 17.096 84.0881 17.4015 84.7089 18.0123C85.3298 18.6132 85.6402 19.4844 85.6402 20.626V25.4778H84.2883V20.8213C84.2883 20.0001 84.083 19.3742 83.6725 18.9436C83.2619 18.503 82.7011 18.2827 81.9901 18.2827C81.2691 18.2827 80.6933 18.508 80.2627 18.9586C79.8421 19.4093 79.6318 20.0652 79.6318 20.9264V25.4778H78.2649V17.2462H79.6318V18.4179C79.9022 17.9973 80.2677 17.6718 80.7283 17.4415C81.199 17.2112 81.7147 17.096 82.2755 17.096ZM87.3624 21.347C87.3624 20.4958 87.5326 19.7548 87.8731 19.1239C88.2136 18.483 88.6842 17.9873 89.2851 17.6368C89.8959 17.2863 90.5919 17.111 91.373 17.111C92.3844 17.111 93.2156 17.3564 93.8665 17.8471C94.5274 18.3378 94.963 19.0187 95.1733 19.8899H93.7013C93.5611 19.3892 93.2857 18.9937 92.8751 18.7033C92.4745 18.4129 91.9738 18.2677 91.373 18.2677C90.5919 18.2677 89.961 18.538 89.4803 19.0788C88.9997 19.6096 88.7593 20.3656 88.7593 21.347C88.7593 22.3384 88.9997 23.1045 89.4803 23.6452C89.961 24.186 90.5919 24.4564 91.373 24.4564C91.9738 24.4564 92.4745 24.3162 92.8751 24.0358C93.2757 23.7554 93.5511 23.3548 93.7013 22.8341H95.1733C94.953 23.6753 94.5124 24.3512 93.8515 24.8619C93.1905 25.3626 92.3644 25.613 91.373 25.613C90.5919 25.613 89.8959 25.4377 89.2851 25.0872C88.6842 24.7367 88.2136 24.241 87.8731 23.6001C87.5326 22.9593 87.3624 22.2082 87.3624 21.347ZM101.083 17.096C101.704 17.096 102.265 17.2312 102.765 17.5016C103.266 17.762 103.657 18.1575 103.937 18.6883C104.227 19.219 104.373 19.8649 104.373 20.626V25.4778H103.021V20.8213C103.021 20.0001 102.815 19.3742 102.405 18.9436C101.994 18.503 101.433 18.2827 100.722 18.2827C100.001 18.2827 99.4256 18.508 98.995 18.9586C98.5744 19.4093 98.3641 20.0652 98.3641 20.9264V25.4778H96.9972V14.3622H98.3641V18.4179C98.6345 17.9973 99.005 17.6718 99.4757 17.4415C99.9564 17.2112 100.492 17.096 101.083 17.096ZM114.116 21.0466C114.116 21.3069 114.101 21.5823 114.071 21.8727H107.492C107.542 22.6839 107.817 23.3198 108.318 23.7804C108.829 24.231 109.444 24.4564 110.165 24.4564C110.756 24.4564 111.247 24.3212 111.637 24.0508C112.038 23.7704 112.318 23.3999 112.479 22.9392H113.951C113.73 23.7303 113.29 24.3762 112.629 24.8769C111.968 25.3676 111.147 25.613 110.165 25.613C109.384 25.613 108.683 25.4377 108.062 25.0872C107.452 24.7367 106.971 24.241 106.62 23.6001C106.27 22.9492 106.095 22.1982 106.095 21.347C106.095 20.4958 106.265 19.7497 106.605 19.1088C106.946 18.4679 107.422 17.9773 108.032 17.6368C108.653 17.2863 109.364 17.111 110.165 17.111C110.947 17.111 111.637 17.2813 112.238 17.6218C112.839 17.9622 113.3 18.4329 113.62 19.0337C113.951 19.6246 114.116 20.2955 114.116 21.0466ZM112.704 20.7612C112.704 20.2404 112.589 19.7948 112.358 19.4243C112.128 19.0438 111.813 18.7584 111.412 18.5681C111.022 18.3678 110.586 18.2677 110.105 18.2677C109.414 18.2677 108.824 18.488 108.333 18.9286C107.852 19.3692 107.577 19.9801 107.507 20.7612H112.704Z" fill="white"/>
<path d="M132.823 20.0813L129.528 23.7241L126.233 20.0813L125.221 21.2028L129.528 25.975L133.835 21.2028L132.823 20.0813Z" fill="white"/>
</svg>
